# xmcd CD database file
#
# Track frame offsets:
#	182
#	15305
#	28210
#	39472
#	52435
#	66082
#	78330
#	92232
#	104130
#	119430
#	134810
#	148782
#	164850
#	178667
#	194657
#
# Disc length: 2745 seconds
#
# Revision: 4
# Processed by: cddbd v1.5.2PL0 Copyright (c) Steve Scherf et al.
# Submitted via: CDex 1.51
#
DISCID=ef0ab70f
DTITLE=Hank Williams, Jr. - The Complete Hank Williams, Jr.
DYEAR=1999
DGENRE=Country
TTITLE0=If The South Woulda Won
TTITLE1=That Old Wheel
TTITLE2=Early In The Morning And Late At Night
TTITLE3=There's A Tear In My Beer
TTITLE4=Finders Are Keepers
TTITLE5=T'Ain't Nobody Bizness
TTITLE6=Good Friends, Good Whiskey, Good Lovin'
TTITLE7=Don't Give Us A Reason
TTITLE8=If It Will It Will
TTITLE9=Angels Are Hard To Find
TTITLE10=Come On Over To The Country
TTITLE11=Everything Comes Down To Money And Love
TTITLE12=I Ain't Goin' Peacefully
TTITLE13=Hog Wild
TTITLE14=I'll Never Get Out Of This World Alive
EXTD=YEAR: 1999
EXTT0=
EXTT1=
EXTT2=
EXTT3=
EXTT4=
EXTT5=
EXTT6=
EXTT7=
EXTT8=
EXTT9=
EXTT10=
EXTT11=
EXTT12=
EXTT13=
EXTT14=
PLAYORDER=
